<?xml version="1.0" standalone="no"?><!DOCTYPE svg PUBLIC "-//W3C//DTD SVG 1.1//EN" "http://www.w3.org/Graphics/SVG/1.1/DTD/svg11.dtd"><svg t="1604063352288" class="icon" viewBox="0 0 1024 1024" version="1.1" xmlns="http://www.w3.org/2000/svg" p-id="10366" xmlns:xlink="http://www.w3.org/1999/xlink" width="200" height="200"><defs><style type="text/css"></style></defs><path d="M483.7 400.8v229.7c0 52.2-2.8 90.2-8.5 114s-17.5 46.1-35.3 66.8C422 832 400.4 846.9 375.1 856c-25.3 9.1-53.5 13.6-84.7 13.6-41.2 0-75.3-4.8-102.6-14.3-27.2-9.5-49-24.3-65.1-44.5-16.2-20.1-27.7-41.3-34.5-63.6C81.4 725 78 689.7 78 641.2V400.8c0-63.2 5.5-110.6 16.4-142.1S127 202 159.5 183s71.9-28.5 118.1-28.5c37.7 0 71.5 6.6 101.3 19.8 29.8 13.2 52.1 29.3 66.8 48.3 14.8 19 24.8 40.4 30 64.2 5.4 23.8 8 61.8 8 114z m-172-57.9c0-36.6-1.8-59.5-5.3-68.7-3.6-9.2-11.9-13.8-24.9-13.8-12.8 0-21.2 4.9-25.3 14.7S250 307.5 250 343v336c0 40 1.9 64.1 5.7 72.3s12.1 12.3 24.9 12.3c12.8 0 21.1-4.8 25.1-14.5 4-9.6 6-31.3 6-65.1V342.9zM868.5 466.1c26.1 8.8 45.5 23.2 58.3 43.2S946 576.2 946 650c0 54.8-6.2 97.3-18.7 127.5s-34.1 53.2-64.7 69c-30.7 15.7-70 23.6-117.9 23.6-54.5 0-97.3-9.1-128.3-27.4-31.1-18.3-51.5-40.7-61.3-67.2-9.8-26.5-14.7-72.5-14.7-138.1v-54.5h172v111.9c0 29.8 1.8 48.7 5.3 56.8s11.4 12.1 23.6 12.1c13.3 0 22.1-5.1 26.4-15.3 4.3-10.2 6.4-36.9 6.4-80v-47.6c0-26.4-3-45.7-8.9-57.9-6-12.2-14.8-20.2-26.4-24s-34.2-6-67.7-6.6v-100c40.9 0 66.1-1.6 75.8-4.7 9.6-3.1 16.6-9.9 20.9-20.4s6.4-26.9 6.4-49.3v-38.3c0-24.1-2.5-40-7.4-47.6-5-7.7-12.7-11.5-23.2-11.5-11.9 0-20.1 4-24.5 12.1s-6.6 25.3-6.6 51.7v56.6h-172v-58.7c0-65.8 15-110.3 45.1-133.4s77.9-34.7 143.5-34.7c82 0 137.6 16 166.9 48 29.2 32 43.8 76.5 43.8 133.5 0 38.5-5.3 66.4-15.8 83.5-10.6 17.2-29.1 32.8-55.5 47z" p-id="10367"></path></svg>